<svg xmlns="http://www.w3.org/2000/svg" viewBox="0 0 520 260" width="520" height="260" role="img" aria-label="The coffee and cotton risk-return frontier, bending left to a minimum-variance mix that is less risky than either asset alone"><rect width="520" height="260" fill="#ffffff"/><path d="M132.8 211.8 L114.2 203.7 L99.3 195.5 L88.3 187.3 L81.7 179.1 L79.7 170.9 L82.2 162.7 L89.5 154.5 L100.9 146.4 L116.3 138.2 L135.2 130.0 L157.3 121.8 L182.2 113.6 L209.2 105.4 L238.2 97.3 L269.0 89.1 L301.2 80.9 L334.5 72.7 L369.0 64.5 L404.2 56.3 L440.3 48.2" fill="none" stroke="#9FE1CB" stroke-width="2.5" stroke-linejoin="round" stroke-linecap="round"/><path d="M79.7 171.4 L79.7 170.9 L82.2 162.7 L89.5 154.5 L100.9 146.4 L116.3 138.2 L135.2 130.0 L157.3 121.8 L182.2 113.6 L209.2 105.4 L238.2 97.3 L269.0 89.1 L301.2 80.9 L334.5 72.7 L369.0 64.5 L404.2 56.3 L440.3 48.2" fill="none" stroke="#1D9E75" stroke-width="3.5" stroke-linejoin="round" stroke-linecap="round"/><circle cx="132.8" cy="211.8" r="7" fill="#2F6FB5" stroke="#ffffff" stroke-width="2.5"/><circle cx="440.3" cy="48.2" r="7" fill="#D85A30" stroke="#ffffff" stroke-width="2.5"/><path d="M79.7 163.4 L87.7 171.4 L79.7 179.4 L71.7 171.4 Z" fill="#141412" stroke="#ffffff" stroke-width="2.5"/></svg>