<svg xmlns="http://www.w3.org/2000/svg" viewBox="0 0 520 260" width="520" height="260" role="img" aria-label="The five-stage scraper pipeline: search, scrape, enrich, score, then deliver by email">
<rect width="520" height="260" fill="#f4f6f9"/>
<style>
  .lbl { font-family: 'Geist Mono', ui-monospace, monospace; font-size: 11px; font-weight: 500; fill: #171b24; }
  .cap { font-family: 'Geist Mono', ui-monospace, monospace; font-size: 8px; fill: #79818f; }
  .box { fill: #ffffff; stroke: #dde1e8; stroke-width: 1.5; }
  .box-on { fill: #e7eefe; stroke: #2f6bed; stroke-width: 1.5; }
  .arr { stroke: #79818f; stroke-width: 1.4; }
</style>
<rect class="box-on" x="30"  y="107" width="76" height="46" rx="8"/>
<text class="lbl" x="68"  y="130" text-anchor="middle" fill="#1f52c9">search</text>
<text class="cap" x="68"  y="143" text-anchor="middle">maps</text>
<line class="arr" x1="110" y1="130" x2="130" y2="130"/><path d="M130 130 l-5 -3 v6 z" fill="#79818f"/>
<rect class="box" x="134" y="107" width="76" height="46" rx="8"/>
<text class="lbl" x="172" y="130" text-anchor="middle">scrape</text>
<text class="cap" x="172" y="143" text-anchor="middle">playwright</text>
<line class="arr" x1="214" y1="130" x2="234" y2="130"/><path d="M234 130 l-5 -3 v6 z" fill="#79818f"/>
<rect class="box" x="238" y="107" width="76" height="46" rx="8"/>
<text class="lbl" x="276" y="130" text-anchor="middle">enrich</text>
<text class="cap" x="276" y="143" text-anchor="middle">pixels</text>
<line class="arr" x1="318" y1="130" x2="338" y2="130"/><path d="M338 130 l-5 -3 v6 z" fill="#79818f"/>
<rect class="box" x="342" y="107" width="76" height="46" rx="8"/>
<text class="lbl" x="380" y="130" text-anchor="middle">score</text>
<text class="cap" x="380" y="143" text-anchor="middle">0–100</text>
<line class="arr" x1="422" y1="130" x2="442" y2="130"/><path d="M442 130 l-5 -3 v6 z" fill="#79818f"/>
<rect class="box" x="446" y="107" width="76" height="46" rx="8"/>
<text class="lbl" x="484" y="130" text-anchor="middle">deliver</text>
<text class="cap" x="484" y="143" text-anchor="middle">email</text>
</svg>
